<?xml version="1.0" encoding="UTF-8" standalone="no"?>
<!-- Generator: Adobe Illustrator 16.0.0, SVG Export Plug-In . SVG Version: 6.00 Build 0)  -->

<svg
   version="1.1"
   x="0px"
   y="0px"
   width="780"
   height="369.89999"
   viewBox="0 0 780 369.89999"
   enable-background="new 0 0 1400 1400"
   xml:space="preserve"
   id="svg67"
   sodipodi:docname="moving-truck_umove.svg"
   inkscape:version="1.4.2 (ebf0e940, 2025-05-08)"
   xmlns:inkscape="http://www.inkscape.org/namespaces/inkscape"
   xmlns:sodipodi="http://sodipodi.sourceforge.net/DTD/sodipodi-0.dtd"
   xmlns="http://www.w3.org/2000/svg"
   xmlns:svg="http://www.w3.org/2000/svg"><sodipodi:namedview
   id="namedview1"
   pagecolor="#000000"
   bordercolor="#000000"
   borderopacity="0.25"
   inkscape:showpageshadow="false"
   inkscape:pageopacity="0.0"
   inkscape:pagecheckerboard="true"
   inkscape:deskcolor="#d1d1d1"
   inkscape:zoom="0.51857143"
   inkscape:cx="418.4573"
   inkscape:cy="207.30027"
   inkscape:window-width="1512"
   inkscape:window-height="842"
   inkscape:window-x="0"
   inkscape:window-y="38"
   inkscape:window-maximized="0"
   inkscape:current-layer="svg67"
   showborder="false"
   borderlayer="false"
   inkscape:antialias-rendering="false" /><defs
   id="defs67"><rect
     x="928.0899"
     y="548.31464"
     width="242.69662"
     height="276.40448"
     id="rect69" /></defs>
<g
   id="Background"
   transform="translate(-283.32672,-493.28512)">
	
</g>
<g
   id="Objects"
   transform="translate(-125.2,-487.5)">
	<g
   id="g65">
		<polygon
   fill="#561b1c"
   points="904,739.2 375,810.3 373.9,857.4 905.2,857.4 "
   id="polygon1" />
		<g
   id="g64">
			<g
   id="g10">
				<g
   id="g4">
					<polygon
   fill="#f0b630"
   points="198.2,706.7 256.4,710.4 256.4,769.4 198.2,760 "
   id="polygon2" />
					<polygon
   fill="#fbcc34"
   points="314.5,706.7 256.4,710.4 256.4,769.4 314.5,760 "
   id="polygon3" />
					<polygon
   fill="#561b1c"
   points="314.5,706.7 254.4,703.8 198.2,706.7 256.4,710.4 "
   id="polygon4" />
				</g>
				<polygon
   fill="#561b1c"
   points="156.1,765.2 146.1,748.5 125.2,769.1 "
   id="polygon5" />
				<g
   id="g8">
					<polygon
   fill="#f0b630"
   points="146.1,748.5 211.3,759 211.3,825.2 146.1,814.7 "
   id="polygon6" />
					<polygon
   fill="#fbcc34"
   points="276.6,748.5 211.3,759 211.3,825.2 276.6,814.7 "
   id="polygon7" />
					<polygon
   fill="#561b1c"
   points="276.6,748.5 204.4,740.4 146.1,748.5 211.3,759 "
   id="polygon8" />
				</g>
				<polygon
   fill="#f0b630"
   points="266.7,779.7 228.7,790.4 211.3,759 276.6,748.5 285.9,761.6 "
   id="polygon9" />
				<polyline
   fill="#fbcc34"
   points="198.2,706.7 197.7,706 185.3,687.3 243.6,684.8 254.4,703.8     "
   id="polyline9" />
				<polygon
   fill="#f0b630"
   points="304,690.9 304,707.6 256.4,710.8 261.3,690.2 "
   id="polygon10" />
			</g>
			<g
   id="g52">
				<g
   id="g50">
					<path
   fill="#561b1c"
   d="m 711.6,682.5 c -3,-0.1 -5.9,0.5 -8.6,1.5 l -2.8,-17.9 -26.3,3.5 c 0,0 -33.3,-15.8 -34.5,38 -1.2,53.8 25.7,52.6 25.7,52.6 l 41.3,4.1 c 1.1,0.2 2.2,0.3 3.3,0.3 16.4,0.4 30.2,-17.7 30.7,-40.4 0,-0.1 0,-0.2 0,-0.2 0.4,-22.5 -12.4,-41.1 -28.8,-41.5 z"
   id="path10" />
					<path
   fill="#561b1c"
   d="m 439.5,685.1 c -3.6,-0.1 -7.1,0.6 -10.5,1.9 l -3.4,-21.8 -32,4.3 c 0,0 -40.5,-19.2 -41.9,46.2 -1.4,65.4 31.3,64 31.3,64 l 50.3,5 c 1.3,0.2 2.6,0.4 4,0.4 20,0.4 36.7,-21.6 37.3,-49.2 0,-0.1 0,-0.2 0,-0.3 0.5,-27.5 -15.2,-50 -35.1,-50.5 z"
   id="path11" />
					<path
   fill="#561b1c"
   d="m 419.3,777.5 68.2,10 393.8,-49.8 c 0,0 19.4,-7.5 19.4,-19.9 v -12.3 l -19.1,1.3 -306.6,21.7 -72.1,8.2 -121.2,-2.5 z"
   id="path12" />
					<path
   fill="#561b1c"
   d="m 838.5,764.7 -43.3,-4.3 c 0,0 -26.1,1.1 -25,-51.1 1.1,-52.2 33.5,-36.9 33.5,-36.9 l 25.5,-3.4 9.7,62.9 z"
   id="path13" />
					<path
   fill="#561b1c"
   d="m 595.1,803.5 -54.3,-5.4 c 0,0 -32.7,1.4 -31.3,-64 1.4,-65.4 41.9,-46.2 41.9,-46.2 l 32,-4.3 12.1,78.7 z"
   id="path14" />
					<path
   fill="#561b1c"
   d="m 282.8,740.6 v 9.9 L 490.4,773.3 887,726.4 c 0,0 13.7,-4.7 13.7,-8.5 v -12.3 l -8.5,-4.7 V 679 l -17.1,-10.4 -558.2,37.9 z"
   id="path15" />
					<polygon
   fill="#f0b630"
   points="857.2,643.9 885.6,663.8 885.6,713.6 797.5,724.1 794.6,570 834.4,594.1 "
   id="polygon15" />
					<g
   id="g16">
						<polygon
   fill="#561b1c"
   points="481.8,497.2 481.8,745.7 291.3,732.6 291.3,520.7 "
   id="polygon16" />
						<path
   fill="#f0b630"
   d="M 473.3,506.8 V 736.5 L 299.9,724.6 V 528.2 l 173.4,-21.4 m 17.1,-19.3 -207.6,25.6 v 227.5 l 207.6,14.2 z"
   id="path16" />
					</g>
					<polygon
   fill="#fbcc34"
   points="797.5,724.1 490.4,754.8 490.4,487.5 797.5,527.9 "
   id="polygon17" />
					<polygon
   fill="#561b1c"
   points="375.9,857.4 458.9,734.3 315.3,724.6 210.3,825.9 "
   id="polygon18" />
					<polygon
   fill="#fbcc34"
   points="373.1,847.4 457.6,725.7 315.3,717.4 210.3,818.7 "
   id="polygon19" />
					<polygon
   fill="#561b1c"
   points="375.9,857.4 374.5,847.4 210.3,818.7 210.3,825.9 "
   id="polygon20" />
					<polygon
   fill="#f0b630"
   points="309.8,531.6 461.9,514.5 461.9,598.4 309.8,608.4 "
   id="polygon21" />
					<path
   fill="#561b1c"
   d="m 470,529.6 c 0.2,1.8 -1.2,3.4 -2.9,3.5 l -134.2,12.2 c -1.8,0.2 -3.4,-1.1 -3.5,-2.9 v 0 c -0.2,-1.8 1.2,-3.4 2.9,-3.5 l 134.2,-12.3 c 1.7,-0.1 3.3,1.2 3.5,3 z"
   id="path21" />
					<path
   fill="#561b1c"
   d="m 464.1,541 -109.8,10 c -1.8,0.2 -3.1,1.7 -2.9,3.5 0.2,1.8 1.7,3.1 3.5,2.9 l 109.2,-10 z"
   id="path22" />
					<path
   fill="#561b1c"
   d="m 468.3,557.3 -109.8,10 c -1.8,0.2 -3.1,1.8 -2.9,3.5 0.2,1.8 1.7,3.1 3.5,2.9 l 109.2,-10 z"
   id="path23" />
					<path
   fill="#fbcc34"
   d="M 447.7,658.1"
   id="path24" />
					<polygon
   fill="#561b1c"
   points="844.4,638.2 807.4,636.8 807.4,591.3 827.3,601.3 "
   id="polygon24" />
					<path
   fill="#561b1c"
   stroke="#561b1c"
   stroke-width="2.8433"
   stroke-miterlimit="10"
   d="m 597.7,693.7 c -21.4,0 -43.1,24.1 -43.1,53.9 l 81.6,-8 c -2.8,-26 -19,-45.9 -38.5,-45.9 z"
   id="path25" />
					<path
   fill="#561b1c"
   stroke="#561b1c"
   stroke-width="2.8433"
   stroke-miterlimit="10"
   d="m 838.5,678 c -17.6,0 -32,19.7 -32.2,44.1 l 64,-6.6 C 867.8,694.3 854.5,678 838.5,678 Z"
   id="path26" />
					<polygon
   fill="#561b1c"
   points="892.2,719.7 892.2,700.8 888.4,700.8 875.2,701.7 876.1,720.7 "
   id="polygon26" />
					<polygon
   fill="#561b1c"
   points="879,694.1 888.4,700.8 886.1,668.5 879,673.3 "
   id="polygon27" />
					<path
   fill="#fbcc34"
   d="m 888.4,679.9 c 0,3.7 -1.1,6.6 -2.4,6.6 -1.3,0 -2.4,-3 -2.4,-6.6 0,-3.7 1.1,-6.6 2.4,-6.6 1.4,0 2.4,3 2.4,6.6 z"
   id="path27" />
					<path
   fill="#561b1c"
   d="m 844.4,641.8 c 0,4.3 -3.5,7.8 -7.8,7.8 v 0 c -4.3,0 -7.8,-3.5 -7.8,-7.8 v -14.2 c 0,-4.3 3.5,-7.8 7.8,-7.8 v 0 c 4.3,0 7.8,3.5 7.8,7.8 z"
   id="path28" />
					<path
   fill="#f9e4a7"
   d="m 848.6,641.8 c 0,4.3 -3.5,7.8 -7.8,7.8 v 0 c -4.3,0 -7.8,-3.5 -7.8,-7.8 v -14.2 c 0,-4.3 3.5,-7.8 7.8,-7.8 v 0 c 4.3,0 7.8,3.5 7.8,7.8 z"
   id="path29" />
					<path
   fill="#f9e4a7"
   d="m 506.5,505.5 273.9,32.2 v 152.6 14.2 L 654.3,715 c 0,0 -18.2,-55.5 -83.4,-35.1 0,0 52.1,-32.7 91.9,16.6 l 104.3,-5.2 V 557.7 L 515,527.8 Z"
   id="path30" />
					<path
   fill="#f9e4a7"
   d="m 835.1,670.9 c 0,0 28.1,-1.8 35.8,27 h 6.6 c 0,0 -5.1,-34.8 -42.4,-27 z"
   id="path31" />
					<polygon
   fill="#f9e4a7"
   points="507.4,648.5 769.5,649.3 768.9,639.3 515.5,636.7 "
   id="polygon31" />
					<path
   fill="#561b1c"
   d="m 672.3,746.3 c 0,0 0,-22.7 11.4,-25.6 l 73.9,-7.1 c 0,0 12.8,6.4 12.8,18.5 0,7.1 -98.1,14.2 -98.1,14.2 z"
   id="path32" />
					<path
   fill="none"
   stroke="#561b1c"
   stroke-width="8.5299"
   stroke-miterlimit="10"
   d="m 466.2,673.8 22.7,-1.4 c 0,0 19.9,4.3 19.9,8.5 v 79.6"
   id="path33" />
					<polyline
   fill="none"
   stroke="#561b1c"
   stroke-width="8.5299"
   stroke-miterlimit="10"
   points="467.6,703.6 489.4,703.6        507.4,703.6      "
   id="polyline33" />
					<polyline
   fill="none"
   stroke="#561b1c"
   stroke-width="8.5299"
   stroke-miterlimit="10"
   points="457.7,732.5 491.3,732.5        508.4,732      "
   id="polyline34" />
					
						<line
   fill="none"
   stroke="#561b1c"
   stroke-width="7.1083"
   stroke-miterlimit="10"
   x1="282.89999"
   y1="681.79999"
   x2="300.79999"
   y2="680.29999"
   id="line34" />
					
						<line
   fill="none"
   stroke="#561b1c"
   stroke-width="7.1083"
   stroke-miterlimit="10"
   x1="281.89999"
   y1="701.70001"
   x2="304.60001"
   y2="701.70001"
   id="line35" />
					
						<line
   fill="none"
   stroke="#561b1c"
   stroke-width="7.1083"
   stroke-miterlimit="10"
   x1="301.79999"
   y1="721.09998"
   x2="281.89999"
   y2="721.09998"
   id="line36" />
					<path
   fill="#fbcc34"
   d="m 243.6,799.6 c -1.8,-0.9 132.9,26 132.9,26 l -12.3,16.9 -133.8,-33.3 z"
   id="path36" />
					<polygon
   fill="#f0b630"
   points="210.3,818.7 315.3,717.4 373.1,847.4 "
   id="polygon36" />
					
						<line
   fill="none"
   stroke="#561b1c"
   stroke-width="8.2216"
   stroke-linecap="round"
   stroke-linejoin="round"
   stroke-miterlimit="10"
   x1="252.89999"
   y1="804.90002"
   x2="349.79999"
   y2="705.70001"
   id="line37" />
					
						<line
   fill="none"
   stroke="#561b1c"
   stroke-width="8.2216"
   stroke-linecap="round"
   stroke-linejoin="round"
   stroke-miterlimit="10"
   x1="283.70001"
   y1="812.29999"
   x2="377.89999"
   y2="710.70001"
   id="line38" />
					
						<line
   fill="none"
   stroke="#561b1c"
   stroke-width="8.2216"
   stroke-linecap="round"
   stroke-linejoin="round"
   stroke-miterlimit="10"
   x1="328.29999"
   y1="819.09998"
   x2="417.29999"
   y2="712.90002"
   id="line39" />
					
						<line
   fill="none"
   stroke="#561b1c"
   stroke-width="8.2216"
   stroke-linecap="round"
   stroke-linejoin="round"
   stroke-miterlimit="10"
   x1="358.60001"
   y1="825.29999"
   x2="443.70001"
   y2="715.90002"
   id="line40" />
					<polygon
   fill="#f0b630"
   points="311.2,618.3 313.2,715 457.7,715 "
   id="polygon40" />
					<rect
   x="385.20001"
   y="663.79999"
   fill="#561b1c"
   width="78.199997"
   height="55.400002"
   id="rect40" />
					<path
   fill="#f9e4a7"
   d="m 797.5,586.3 29.9,14.9 9.2,18.5 c 0,0 5.7,0.7 5.7,2.8 0,2.1 -9.9,-24.2 -9.9,-24.2 L 797.6,577 v 9.3 z"
   id="path40" />
					<polygon
   fill="#f9e4a7"
   points="882,667.4 848.6,641.8 845.1,645.3 877.8,670.2 "
   id="polygon41" />
					<polygon
   fill="#f9e4a7"
   points="776.8,545.8 772.6,539.4 793.2,530.2 "
   id="polygon42" />
					<g
   id="g45">
						<path
   fill="#fbcc34"
   d="m 597.3,703.6 c -19.9,-0.4 -36.6,21.4 -37.3,48.9 0,0.1 0,0.2 0,0.3 -0.6,27.6 15.1,50.3 35.1,50.8 20,0.4 36.7,-21.6 37.3,-49.2 0,-0.1 0,-0.2 0,-0.3 0.5,-27.5 -15.2,-50 -35.1,-50.5 z"
   id="path42" />
						<path
   fill="#561b1c"
   d="m 573.5,753.4 c 0.5,-17.2 10.9,-31 23.4,-30.7 12.5,0.3 22.3,14.4 22,31.7 0,0.1 0,0.1 0,0.2 -0.4,17.3 -10.9,31.1 -23.4,30.9 -12.5,-0.3 -22.4,-14.5 -22,-31.9 0,-0.1 0,-0.2 0,-0.2 z"
   id="path43" />
						<path
   fill="#f9e4a7"
   d="m 611.1,754.4 c 0,-0.1 0,-0.1 0,-0.2 0.3,-15.4 -7.5,-28.3 -18.1,-31.1 1.3,-0.3 2.6,-0.4 3.9,-0.4 12.5,0.3 22.3,14.4 22,31.7 0,0.1 0,0.1 0,0.2 -0.4,17.3 -10.9,31.1 -23.4,30.9 -1.3,0 -2.6,-0.2 -3.9,-0.6 10.7,-2.4 19.2,-15 19.5,-30.5 z"
   id="path44" />
						<path
   fill="#f9e4a7"
   d="m 588.6,752.4 c -0.1,5.5 3,10 7,10.1 4,0.1 7.3,-4.3 7.4,-9.8 0.1,-5.5 -3,-10 -7,-10.1 -3.9,-0.1 -7.2,4.3 -7.4,9.8 z"
   id="path45" />
					</g>
					<g
   id="g49">
						<path
   fill="#fbcc34"
   d="m 840.3,684.9 c -15.9,-0.3 -29.2,17.1 -29.8,39 0,0.1 0,0.2 0,0.2 -0.5,22 12.1,40.2 28,40.5 16,0.3 29.3,-17.2 29.8,-39.3 0,-0.1 0,-0.2 0,-0.2 0.4,-21.8 -12.1,-39.8 -28,-40.2 z"
   id="path46" />
						<path
   fill="#561b1c"
   d="m 821.3,724.6 c 0.4,-13.8 8.7,-24.7 18.7,-24.5 10,0.2 17.8,11.5 17.6,25.3 0,0.1 0,0.1 0,0.2 -0.3,13.8 -8.7,24.9 -18.7,24.6 -10,-0.2 -17.9,-11.6 -17.6,-25.4 -0.1,-0.1 0,-0.1 0,-0.2 z"
   id="path47" />
						<path
   fill="#f9e4a7"
   d="m 851.3,725.5 c 0,0 0,-0.1 0,-0.1 0.2,-12.3 -6,-22.6 -14.5,-24.8 1,-0.2 2.1,-0.3 3.1,-0.3 10,0.2 17.8,11.5 17.6,25.3 0,0.1 0,0.1 0,0.2 -0.3,13.8 -8.7,24.9 -18.7,24.6 -1.1,0 -2.1,-0.2 -3.1,-0.4 8.6,-2.1 15.3,-12.2 15.6,-24.5 z"
   id="path48" />
						<path
   fill="#f9e4a7"
   d="m 833.4,723.8 c -0.1,4.4 2.4,8 5.6,8.1 3.2,0.1 5.8,-3.4 5.9,-7.8 0.1,-4.4 -2.4,-8 -5.6,-8.1 -3.2,-0.1 -5.8,3.4 -5.9,7.8 z"
   id="path49" />
					</g>
					<polygon
   fill="#f0b630"
   points="515,623.1 759.5,629.1 759.5,564.8 519.8,542.1 516,541.2 499.9,500.8 499.9,646.8 "
   id="polygon49" />
				</g>
				<polygon
   fill="#fbcc34"
   points="285.7,671.4 295.6,670.4 296.1,525.4 285.7,516.9 "
   id="polygon50" />
				<path
   fill="#fbcc34"
   d="m 793.9,652.4 h 50.5 v 10.7 c 0,0 -43.4,1.4 -46.9,57.6 l -10,-1.4 0.7,-61.8 z"
   id="path50" />
				<path
   fill="#fbcc34"
   d="m 826.8,666.2 c 0,0 34.6,-6.6 48.3,15.6 v -8.1 l -30.8,-21.3 -49.3,-1.9 -0.5,9.5 -2.4,19 z"
   id="path51" />
				<path
   fill="#f9e4a7"
   d="m 823.8,643.9 c 0,1.2 -1,2.1 -2.1,2.1 H 811 c -1.2,0 -2.1,-1 -2.1,-2.1 v 0 c 0,-1.2 1,-2.1 2.1,-2.1 h 10.7 c 1.1,0 2.1,0.9 2.1,2.1 z"
   id="path52" />
				<polygon
   fill="#561b1c"
   points="793.2,729.7 793.2,531.6 797.5,527.9 797.5,727.3 "
   id="polygon52" />
			</g>
			<g
   id="g55">
				<polygon
   fill="#e5a31f"
   points="352.2,670.7 408,666.7 408,716.2 352.2,714.3 "
   id="polygon53" />
				<polygon
   fill="#fbcc34"
   points="463.8,670.5 408,666.7 408,716.2 463.8,714.3 "
   id="polygon54" />
				<polygon
   fill="#561b1c"
   points="463.8,671.2 402,663.6 352.2,670.5 408,667.7 "
   id="polygon55" />
			</g>
			<polygon
   fill="#f0b630"
   points="463.6,685.9 463.6,670.5 408,667.7 423.1,685.9 "
   id="polygon56" />
			<polygon
   fill="#561b1c"
   points="352,686.2 352.2,670.5 337.7,687.3 "
   id="polygon57" />
			<g
   id="g63">
				<g
   id="g62">
					
					
					
					
					
					
				</g>
			</g>
		</g>
	</g>
	<path
   fill="#fbcc34"
   d="m 846.6,642.8 c 0,4.3 -3.5,7.8 -7.8,7.8 v 0 c -4.3,0 -7.8,-3.5 -7.8,-7.8 v -14.2 c 0,-4.3 3.5,-7.8 7.8,-7.8 v 0 c 4.3,0 7.8,3.5 7.8,7.8 z"
   id="path65" />
	<path
   fill="#f9e4a7"
   d="m 844.7,643 c 0,3.6 -3,6.6 -6.6,6.6 v 0 c -3.6,0 -6.6,-3 -6.6,-6.6 v -12 c 0,-3.6 3,-6.6 6.6,-6.6 v 0 c 3.6,0 6.6,3 6.6,6.6 z"
   id="path66" />
</g>
<g
   id="Text"
   transform="translate(-283.32672,-493.28512)">
	<g
   id="g67">
		
		<text
   transform="matrix(1.0062,0,0,1,895.5156,858.0791)"
   fill="#561b1c"
   font-family="Anton-Regular"
   font-size="166.864px"
   id="text67" />
	<text
   xml:space="preserve"
   style="font-size:21.3333px;text-align:start;writing-mode:lr-tb;direction:ltr;text-anchor:start;fill:#000000"
   x="532.58429"
   y="566.29211"
   id="text68"><tspan
     id="tspan67"
     x="532.58429"
     y="566.29211" /></text><text
   xml:space="preserve"
   id="text69"
   style="font-size:21.3333px;text-align:start;writing-mode:lr-tb;direction:ltr;white-space:pre;shape-inside:url(#rect69);fill:#000000" /></g>
</g>
<text
   xml:space="preserve"
   style="font-style:normal;font-variant:normal;font-weight:normal;font-stretch:normal;font-size:58.5318px;font-family:'.Damascus PUA';-inkscape-font-specification:'.Damascus PUA';text-align:start;writing-mode:lr-tb;direction:ltr;text-anchor:start;fill:#000000;stroke-width:1.09747"
   x="530.26886"
   y="80.0933"
   id="text70"
   transform="matrix(0.81950767,0.04788205,-0.13160201,1.2125556,0,0)"><tspan
     id="tspan70"
     x="530.26886"
     y="80.0933"
     style="font-style:normal;font-variant:normal;font-weight:600;font-stretch:normal;font-size:58.5318px;font-family:'.Damascus PUA';-inkscape-font-specification:'.Damascus PUA Semi-Bold';stroke-width:1.09747">UMOVE</tspan></text></svg>
